<?xml version="1.0" encoding="UTF-8"?>
<svg id="Layer_1" data-name="Layer 1" xmlns="http://www.w3.org/2000/svg" xmlns:xlink="http://www.w3.org/1999/xlink" viewBox="0 0 1024 1024">
  <defs>
    <style>
      .cls-1 {
        fill: #010101;
      }

      .cls-2 {
        fill: url(#radial-gradient);
      }
    </style>
    <radialGradient id="radial-gradient" cx="410.104" cy="512" fx="410.104" fy="512" r="402.418" gradientUnits="userSpaceOnUse">
      <stop offset=".188" stop-color="#fbaf5f"/>
      <stop offset=".292" stop-color="#f9a053"/>
      <stop offset=".635" stop-color="#f4742f"/>
      <stop offset=".809" stop-color="#f26322"/>
      <stop offset=".972" stop-color="#f26322"/>
    </radialGradient>
  </defs>
  <path class="cls-1" d="M980,433.056c-5.175-29.129-13.689-58.243-25.513-87.372-11.839-29.114-27.927-57.484-48.265-85.124-20.338-27.611-45.866-52.084-76.539-73.362-30.702-21.292-66.956-38.264-108.731-50.961-41.789-12.696-90.416-19.045-145.895-19.045h-164.954v100.798h157.191c63.602,0,115.38,10.653,155.319,31.931,39.939,21.277,71.177,47.239,93.755,77.842,22.55,30.632,37.887,62.913,46.039,96.887,8.124,33.988,12.2,63.672,12.2,89.05,0,49.282-8.875,92.406-26.626,129.372-17.751,36.965-41.789,67.758-72.116,92.406-30.341,24.634-65.64,43.124-105.955,55.441-40.315,12.317-83.03,18.475-128.129,18.475h-131.678v100.812h147.203c70.266,0,132.191-11.208,185.834-33.609,53.614-22.401,98.554-52.084,134.793-89.035,36.239-36.965,63.602-79.141,82.105-126.57,18.474-47.414,27.739-96.507,27.739-147.293,0-24.649-2.602-51.53-7.777-80.644Z"/>
  <path class="cls-2" d="M409.425,82.939s11.261,423.256-373.202,428.979c0,0,356.092-31.535,374.579,429.144,0,0-5.609-429.062,373.183-428.96,0,0-359.081,26.758-374.559-429.163Z"/>
</svg>
